HIERARCHY
ROOT Hips
{
	OFFSET -0.001795 -0.223333 0.028219
	CHANNELS 6 Xposition Yposition Zposition Zrotation Yrotation Xrotation 
	JOINT LeftUpLeg
	{
		OFFSET 0.069520 -0.091406 -0.006815
		CHANNELS 3 Zrotation Yrotation Xrotation
		JOINT LeftLeg
		{
			OFFSET 0.034277 -0.375199 -0.004496
			CHANNELS 3 Zrotation Yrotation Xrotation
			JOINT LeftFoot
			{
				OFFSET -0.013596 -0.397961 -0.043693
				CHANNELS 3 Zrotation Yrotation Xrotation
				JOINT LeftToe
				{
					OFFSET 0.026358 -0.055791 0.119288
					CHANNELS 3 Zrotation Yrotation Xrotation
					End Site
					{
						OFFSET 0.000000 0.000000 0.000000
					}
				}
			}
		}
	}
	JOINT RightUpLeg
	{
		OFFSET -0.067670 -0.090522 -0.004320
		CHANNELS 3 Zrotation Yrotation Xrotation
		JOINT RightLeg
		{
			OFFSET -0.038290 -0.382569 -0.008850
			CHANNELS 3 Zrotation Yrotation Xrotation
			JOINT RightFoot
			{
				OFFSET 0.015774 -0.398415 -0.042312
				CHANNELS 3 Zrotation Yrotation Xrotation
				JOINT RightToe
				{
					OFFSET -0.025372 -0.048144 0.123348
					CHANNELS 3 Zrotation Yrotation Xrotation
					End Site
					{
						OFFSET 0.000000 0.000000 0.000000
					}
				}
			}
		}
	}
	JOINT Spine
	{
		OFFSET -0.002533 0.108963 -0.026696
		CHANNELS 3 Zrotation Yrotation Xrotation
		JOINT Spine1
		{
			OFFSET 0.005487 0.135180 0.001092
			CHANNELS 3 Zrotation Yrotation Xrotation
			JOINT Spine2
			{
				OFFSET 0.001457 0.052922 0.025425
				CHANNELS 3 Zrotation Yrotation Xrotation
				JOINT Neck
				{
					OFFSET -0.002778 0.213870 -0.042857
					CHANNELS 3 Zrotation Yrotation Xrotation
					JOINT Head
					{
						OFFSET 0.005152 0.064970 0.051349
						CHANNELS 3 Zrotation Yrotation Xrotation
						End Site
						{
							OFFSET 0.000000 0.000000 0.000000
						}
					}
				}
				JOINT LeftShoulder
				{
					OFFSET 0.078845 0.121749 -0.034090
					CHANNELS 3 Zrotation Yrotation Xrotation
					JOINT LeftArm
					{
						OFFSET 0.090977 0.030469 -0.008868
						CHANNELS 3 Zrotation Yrotation Xrotation
						JOINT LeftForeArm
						{
							OFFSET 0.259612 -0.012772 -0.027456
							CHANNELS 3 Zrotation Yrotation Xrotation
							JOINT LeftHand
							{
								OFFSET 0.249234 0.008986 -0.001171
								CHANNELS 3 Zrotation Yrotation Xrotation
								End Site
								{
									OFFSET 0.000000 0.000000 0.000000
								}
							}
						}
					}
				}
				JOINT RightShoulder
				{
					OFFSET -0.081759 0.118833 -0.038615
					CHANNELS 3 Zrotation Yrotation Xrotation
					JOINT RightArm
					{
						OFFSET -0.096012 0.032551 -0.009143
						CHANNELS 3 Zrotation Yrotation Xrotation
						JOINT RightForeArm
						{
							OFFSET -0.253742 -0.013329 -0.021401
							CHANNELS 3 Zrotation Yrotation Xrotation
							JOINT RightHand
							{
								OFFSET -0.255298 0.007772 -0.005559
								CHANNELS 3 Zrotation Yrotation Xrotation
								End Site
								{
									OFFSET 0.000000 0.000000 0.000000
								}
							}
						}
					}
				}
			}
		}
	}
}
MOTION
Frames: 5
Frame Time: 0.050000
0.720737 0.350902 -0.245037 -3.411566 -50.523851 -30.311890 15.308107 7.434996 -21.535125 10.215236 -17.071263 151.619949 0.631590 -22.466196 -14.026943 0.000000 0.000000 0.000000 -25.892409 7.372755 -49.605845 92.061480 -65.427630 67.763947 -77.079884 -70.268130 52.935883 0.000000 0.000000 0.000000 38.232218 -5.826965 80.229426 -9.630101 2.507225 -22.566852 -14.784422 -22.870273 31.914388 9.665971 -8.405704 -36.262708 0.000000 0.000000 0.000000 -8.420497 -37.105135 15.036076 -18.458112 -34.708222 1.808880 53.913888 -69.318446 -33.809845 0.000000 0.000000 0.000000 28.725498 23.324358 3.653993 21.861690 20.062304 2.045145 -26.905493 69.857420 -21.510968 0.000000 0.000000 0.000000 
0.720105 0.351394 -0.244895 -3.244166 -50.869294 -30.009078 14.977774 7.533625 -22.266919 10.803830 -18.866449 151.321033 -0.294327 -24.229818 -13.058477 0.000000 0.000000 0.000000 -26.196809 7.487893 -50.016407 92.274017 -65.211723 67.425108 -76.356941 -70.311767 51.972139 0.000000 0.000000 0.000000 38.657326 -6.055633 80.807897 -10.571849 2.755912 -23.134271 -14.983343 -23.804134 32.130023 9.613552 -8.676685 -36.254621 0.000000 0.000000 0.000000 -8.814222 -36.905003 15.217037 -17.203692 -34.389859 1.543705 54.165778 -68.997492 -33.829228 0.000000 0.000000 0.000000 28.644062 23.550073 3.552153 21.799306 20.843487 2.204166 -28.490514 70.009721 -22.861742 0.000000 0.000000 0.000000 
0.719091 0.351862 -0.244447 -3.120206 -51.204411 -29.633465 14.722059 7.600020 -22.759984 11.296298 -20.423760 151.129312 -0.552331 -25.492469 -13.018940 0.000000 0.000000 0.000000 -26.539995 7.540865 -50.174829 91.583308 -65.031228 68.064549 -72.732464 -70.539828 47.652573 0.000000 0.000000 0.000000 38.946290 -6.151814 81.175165 -11.103710 2.826598 -23.783575 -15.170990 -23.944113 32.581852 9.894049 -8.897731 -36.791398 0.000000 0.000000 0.000000 -8.982181 -36.826610 15.255055 -16.555430 -34.488393 1.433073 52.608190 -69.005663 -32.743000 0.000000 0.000000 0.000000 28.818812 23.431712 3.515057 21.692329 21.492808 2.271910 -29.530451 70.650467 -23.873757 0.000000 0.000000 0.000000 
0.717702 0.352007 -0.243821 -3.095055 -51.353349 -29.243157 14.334871 7.574616 -23.288348 11.768762 -21.853220 150.895320 -0.784457 -26.656045 -12.966662 0.000000 0.000000 0.000000 -26.996773 7.460252 -50.070967 89.783388 -65.002508 69.900280 -65.524951 -70.467424 39.653810 0.000000 0.000000 0.000000 39.369193 -6.464704 81.646872 -11.037270 2.775564 -23.936354 -15.764038 -24.153073 32.289961 10.114147 -9.019704 -36.961423 0.000000 0.000000 0.000000 -8.822678 -36.710881 15.130905 -16.484988 -34.206518 1.379038 51.381816 -69.113834 -31.920431 0.000000 0.000000 0.000000 28.953083 23.272008 3.511569 21.911261 22.049642 2.373120 -30.144422 71.501373 -24.702985 0.000000 0.000000 0.000000 
0.716166 0.351851 -0.243243 -3.435786 -51.685819 -28.415252 14.104571 7.644005 -23.776569 12.068653 -22.845583 150.828978 0.030639 -27.321876 -14.385716 0.000000 0.000000 0.000000 -27.049372 7.584891 -50.276692 91.248702 -64.877307 68.334533 -65.137501 -70.864920 38.585127 0.000000 0.000000 0.000000 39.653480 -6.603630 82.047294 -11.265938 2.702696 -24.770969 -15.806463 -24.139809 32.594741 10.437871 -9.200957 -37.311294 0.000000 0.000000 0.000000 -9.076412 -36.751462 15.275775 -16.613005 -34.010121 1.326442 48.630846 -68.945075 -29.823769 0.000000 0.000000 0.000000 29.144976 23.201102 3.597530 22.006446 22.436823 2.399370 -29.679641 72.105396 -24.523696 0.000000 0.000000 0.000000 
